<svg xmlns="http://www.w3.org/2000/svg" width="38" height="12" fill="none"><path fill="#fff" d="M24.726 0c-2.695 0-5.104 1.359-5.104 3.87 0 2.879 4.272 3.077 4.272 4.524 0 .609-.718 1.154-1.943 1.154-1.74 0-3.04-.762-3.04-.762l-.556 2.534s1.498.643 3.486.643c2.947 0 5.266-1.425 5.266-3.979 0-3.042-4.29-3.235-4.29-4.578 0-.477.589-1 1.811-1 1.379 0 2.504.554 2.504.554l.544-2.446S26.452 0 24.726 0M.066.185 0 .554s1.134.202 2.155.605c1.315.461 1.409.73 1.63 1.565L6.2 11.773h3.235L14.418.185H11.19L7.988 8.063 6.68 1.385c-.12-.764-.727-1.2-1.47-1.2zm15.65 0-2.532 11.588h3.078L18.785.185zm17.167 0c-.742 0-1.136.386-1.424 1.062l-4.51 10.526h3.228l.625-1.755h3.932l.38 1.755h2.848L35.477.185zm.42 3.13.957 4.349h-2.564z"/></svg>